# xmcd
#
# Track frame offsets:
#	150
#	3931
#	27474
#	45236
#	68975
#	89358
#	107727
#	125065
#	138025
#	158668
#	174084
#	187598
#
# Disc length: 2660 seconds
#
# Revision: 0
# Processed by: cddbd v1.5.2PL0 Copyright (c) Steve Scherf et al.
# Submitted via: EZCDAudioConverter 2.1.7.1
#
DISCID=880a620c
DTITLE=Dead Man's Bones - Dead Man's Bones (2009)
DYEAR=1900
DGENRE=
TTITLE0=Intro
TTITLE1=Dead Hearts
TTITLE2=In The Room Where You Sleep
TTITLE3=Buried In Water
TTITLE4=My Body's A Zombie For You
TTITLE5=Pa Pa Power
TTITLE6=Young and Tragic
TTITLE7=Paper Ships
TTITLE8=Lose Your Soul
TTITLE9=Werewolf Heart
TTITLE10=Dead Man's Bones
TTITLE11=Flowers Grow Out Of My Grave
EXTD=
EXTT0=
EXTT1=
EXTT2=
EXTT3=
EXTT4=
EXTT5=
EXTT6=
EXTT7=
EXTT8=
EXTT9=
EXTT10=
EXTT11=
PLAYORDER=
